<?xml version="1.0" encoding="UTF-8"?>
<svg width="93px" height="120px" viewBox="0 0 93 120" version="1.1" xmlns="http://www.w3.org/2000/svg" xmlns:xlink="http://www.w3.org/1999/xlink">
    <!-- Generator: Sketch 59.1 (86144) - https://sketch.com -->
    <title>Phone-Hollow</title>
    <desc>Created with Sketch.</desc>
    <g id="Phone-Hollow" stroke="none" stroke-width="1" fill="none" fill-rule="evenodd">
        <path d="M21.3010504,12 C26.2945254,12 37.7327626,31.8156161 36.5353773,35.5811114 C34.886194,40.7674053 24.9661654,41.6997871 23.6432994,48.7136761 C22.7348332,53.5304011 25.7169226,61.3197697 32.3200731,69.8799141 C39.83835,79.6264034 45.9967723,83.7619326 53.6087855,84.3945615 C61.4864203,85.0492661 65.8121014,74.5253376 69.7468645,74.5253376 C78.0604868,74.5253376 91,87.6322618 91,91.2171721 C91,97.5503755 79.7594679,105.418263 69.7468645,107.638049 C63.91131,108.931787 51.9818948,106.958275 38.9408189,98.4397364 C30.8468238,93.1526716 20.1974525,81.7456592 15.1470845,74.080662 C6.1013791,60.3518985 2.84118474,50.2586602 2.10796849,42.3878587 C0.622676409,26.4438053 14.8434645,12 21.3010504,12 Z" id="Path" stroke="#19D3F1" stroke-width="4"></path>
    </g>
</svg>