<?xml version="1.0" encoding="UTF-8"?>
<svg width="92px" height="120px" viewBox="0 0 92 120" version="1.1" xmlns="http://www.w3.org/2000/svg" xmlns:xlink="http://www.w3.org/1999/xlink">
    <!-- Generator: Sketch 59.1 (86144) - https://sketch.com -->
    <title>Github-Hollow</title>
    <desc>Created with Sketch.</desc>
    <g id="Github-Hollow" stroke="none" stroke-width="1" fill="none" fill-rule="evenodd">
        <g id="github" transform="translate(2.000000, 16.000000)" fill-rule="nonzero" stroke="#19D3F1" stroke-width="4">
            <path d="M85.7088948,0 L2.29188636,0 C1.83909134,0 1.07512922,0 0,0 C0,1.12724179 0,1.88480208 0,2.27268086 L0,85.7273191 C0,86.1583137 0,86.915874 0,88 C1.11855572,88 1.88251784,88 2.29188636,88 C13.7763055,87.9917234 22.3896199,87.985516 28.1318295,87.9813777 C28.5519352,87.9810749 29.1820938,87.9806208 30.0223053,87.9800153 C31.2738596,87.9657626 32.2327961,87.270945 32.2768528,86.0952549 C32.3905879,83.0394519 32.3102859,79.9771422 32.3102859,77.022812 C30.0768294,77.1261439 27.9446096,77.4059299 25.836449,77.2854019 C21.1867475,77.0198685 17.6137794,75.0525356 15.7607417,70.5376932 C14.6630734,67.8629941 13.009072,65.575286 10.4331604,64.0487013 C9.95212987,63.7633381 9.53156013,63.3431942 9.16348349,62.9165437 C8.68245294,62.36007 8.77244112,61.7884141 9.53249751,61.6356627 C10.2992718,61.4810522 11.1369742,61.3730727 11.8931248,61.5132756 C14.8628909,62.0660313 16.9165273,63.9129911 18.4885083,66.3695624 C21.5968498,71.2295672 26.3813774,72.7172669 31.7642639,70.4729365 C32.0643807,70.3477609 32.4458931,70.0444269 32.5024482,69.7675843 C32.9364537,67.6162061 33.7472846,65.6546052 35.3812887,63.9348349 C33.5646524,63.6011366 31.8819047,63.3555879 30.2316528,62.976188 C25.4796209,61.8858589 21.2106506,59.9242581 18.0888733,56.0283222 C15.5418642,52.8502871 14.3771735,49.1300309 13.8417751,45.1705778 C13.0032915,38.9689631 13.7538179,33.1637895 18.0487223,28.207889 C18.265725,27.9575378 18.3833658,27.4445966 18.286816,27.1327421 C17.2111761,23.6475 17.3755295,20.1915378 18.4416394,16.7451807 C19.0010972,14.9352468 19.1568579,14.8450832 21.0194257,15.0972935 C21.133317,15.1124757 21.2440837,15.1408261 21.3570376,15.1598813 C25.0906095,15.7724362 28.3042498,17.5651739 31.4699276,19.4899038 C31.8954967,19.7487756 32.5436928,19.9098927 33.0112876,19.7971107 C40.5723254,17.9777267 48.11899,17.9853178 55.6790905,19.8037723 C56.117939,19.9089632 56.704112,19.7591553 57.1237444,19.5411824 C58.8447683,18.6489964 60.4922081,17.6118049 62.2352603,16.7659401 C64.2631188,15.7828158 66.3990882,15.0432263 68.6986298,15.0839703 C69.1010769,15.0915614 69.7236514,15.4726654 69.8583212,15.8254189 C71.2418894,19.4604689 71.5335698,23.1647683 70.4310584,26.9477672 C70.3134176,27.3516444 70.4883946,27.9271734 70.7074284,28.3253186 C71.7955666,30.3050451 73.314742,32.1320203 74.0032453,34.231965 C76.102032,40.6326523 75.3371326,46.9709067 72.4801642,52.986617 C69.8622269,58.5008503 65.0070836,61.2949929 59.25987,62.7362165 C57.318875,63.2226662 55.33023,63.5184091 53.2362864,63.9261593 C55.9803009,66.7686371 56.4105569,70.2376125 56.3618133,73.8708035 C56.3111949,77.6186355 56.3246306,81.3675519 56.3225997,85.1163135 C56.3216623,86.9319794 57.1209323,87.9350884 58.5159052,87.9938032 C58.5149678,88 88,88 88,88 L88,2.27268086 C88,1.89005844 88,1.13249815 88,0 C86.9303531,0 86.1666514,0 85.7088948,0 Z" id="Path"></path>
        </g>
        <line x1="33.5" y1="103.5" x2="61.5" y2="103.5" id="Line" stroke="#19D3F1" stroke-width="4" stroke-linecap="square"></line>
    </g>
</svg>