<?xml version="1.0" encoding="UTF-8"?>
<svg width="120px" height="120px" viewBox="0 0 120 120" version="1.1" xmlns="http://www.w3.org/2000/svg" xmlns:xlink="http://www.w3.org/1999/xlink">
    <!-- Generator: Sketch 59.1 (86144) - https://sketch.com -->
    <title>Github-Filled</title>
    <desc>Created with Sketch.</desc>
    <g id="Github-Filled" stroke="none" stroke-width="1" fill="none" fill-rule="evenodd">
        <rect id="Rectangle" fill="#DEF2F3" x="14" y="14" width="92" height="92"></rect>
        <g id="github" transform="translate(14.000000, 14.000000)" fill="#19D3F1" fill-rule="nonzero" stroke="#19D3F1" stroke-width="4">
            <path d="M2,2 L2,89.9987587 L31.5868142,89.9804008 C31.6540464,89.881173 31.7296073,89.7503927 31.8052774,89.5954588 C32.0713725,89.0506318 32.2660238,88.3467756 32.2782367,88.0208676 C32.28446,87.8536613 32.290152,87.6846575 32.2953316,87.513648 C32.3444743,85.8911362 32.3468669,84.5699174 32.3241075,81.6576173 C32.3226901,81.4762516 32.3214028,81.3089574 32.3202365,81.1534383 C30.0186298,81.3186511 29.034381,81.3571562 27.7224196,81.2821486 C22.0699557,80.9593498 17.9847404,78.3508314 15.9104909,73.2970166 C14.8801776,70.786442 13.4313771,68.9651233 11.4127405,67.7688011 C10.7655616,67.3848732 10.2164983,66.8806203 9.6504289,66.224468 C8.20616709,64.5536931 8.80316702,62.1441959 11.1371788,61.6751211 C12.3167922,61.4372668 13.2892696,61.367222 14.2590949,61.5470442 C17.6092642,62.1706034 20.1623944,64.149355 22.1733755,67.2919621 C24.6984913,71.2400723 28.3331162,72.440209 32.677226,70.7547149 C32.9698294,69.5210639 33.3755372,68.3948707 33.9200757,67.3570721 C33.0761173,67.2042924 32.4448812,67.0773855 31.7843853,66.9255346 C26.05905,65.611886 21.7114565,63.2517026 18.5282336,59.2790836 C15.9310466,56.0384388 14.5022494,52.1896181 13.8598083,47.4385478 C12.8753864,40.15754 14.1079104,34.2221604 18.2371267,29.251807 C17.2251711,25.6431276 17.3555996,21.9536864 18.5308412,18.1545454 C19.377774,15.4145843 20.4522352,14.7314177 23.2836965,15.1148301 C23.4001544,15.1303544 23.4744978,15.1442112 23.618048,15.17355 C23.6183888,15.1736197 23.6183888,15.1736197 23.6187284,15.1736891 C23.6764603,15.1853855 23.681057,15.1862833 23.6808419,15.1862676 C27.1978239,15.7632873 30.0752909,17.0853149 34.5093228,19.7812032 C34.5404527,19.8001394 34.6573135,19.8251347 34.5433904,19.8526128 C42.3642035,17.97072 50.1917167,17.9648907 58.025994,19.8303165 C58.0848531,19.816665 58.1529233,19.7917417 58.20327,19.7655904 C58.7933667,19.4596818 59.2695473,19.1962014 60.3381216,18.5922009 C60.3476609,18.5868089 60.3476609,18.5868089 60.3572034,18.5814151 C61.8153207,17.7572326 62.4901319,17.3897563 63.3627707,16.966284 C65.9888997,15.6931128 68.303856,15.041225 70.7363478,15.084326 C71.9266671,15.1067782 73.2887403,15.9646742 73.727504,17.1139729 C75.2761512,21.182735 75.5379789,25.2434235 74.4183322,29.2714843 C74.4305442,29.3027662 74.4451527,29.3347469 74.460126,29.3619646 C74.7415655,29.8740073 75.0048616,30.3001657 75.6064677,31.2376148 C75.638296,31.2872099 75.638296,31.2872099 75.6702379,31.3369899 C76.9159145,33.2785162 77.4634851,34.2661885 77.9036867,35.6088098 C80.0957454,42.2939492 79.4716635,49.1384253 76.2868872,55.8443768 C73.5873706,61.5304429 68.6768151,64.9382023 61.7460709,66.6762187 C60.8363307,66.9042167 59.9995685,67.0797524 58.7225665,67.3172428 C59.9739022,69.6561899 60.4086866,72.3904307 60.3616309,75.8978131 C60.3278185,78.4013155 60.3214361,80.4081332 60.3226145,84.9283923 C60.3227163,85.3192309 60.3227163,85.3192309 60.3227916,85.7102066 C60.3228773,86.2519069 60.3228292,86.6931199 60.3225994,87.117346 C60.3222309,87.8311678 60.494488,88.7901874 60.7655148,89.5039048 C60.8419037,89.7050659 60.9205218,89.8718056 60.9916132,89.9950582 C61.2101468,89.9953331 61.503693,89.9955967 61.8698846,89.995849 C62.6996751,89.9964207 63.8985367,89.996932 65.4356219,89.9973858 C68.1411497,89.9981846 71.8306724,89.9987897 76.2581494,89.9992254 C79.7016735,89.9995643 83.3911739,89.9997821 87.0806758,89.9999032 C88.8127546,89.9999533 89.1098746,89.9999619 89.9999988,89.9999771 L90,2 L2,2 Z M18.3751594,29.7205995 C18.3753594,29.7212476 18.3755598,29.7218962 18.3757608,29.7225454 C18.3755569,29.7218848 18.3753531,29.7212242 18.3751493,29.7205637 Z M58.0119616,19.8340947 C58.0103023,19.8339086 58.009904,19.8338109 58.0106092,19.8336677 C58.0129611,19.8331901 58.0153327,19.8326918 58.0177221,19.8321736 Z M74.3622038,29.4693849 C74.3585689,29.4819504 74.3549205,29.4945156 74.3512586,29.5070804 C74.3606398,29.4748734 74.3682804,29.445452 74.3744469,29.4185976 Z M61.0017842,90.012483 C61.0070133,90.0213332 61.0121982,90.0299408 61.017335,90.0383019 L60.9228357,90.0356387 L60.7309363,90.0079909 C60.7260073,90.0072475 60.721033,90.0065305 60.7160134,90.0058409 L60.6784699,90.0004318 C60.6524556,89.9984041 60.6524556,89.9984041 60.617476,89.9964021 C60.6139367,89.9962494 60.6107419,89.9961116 60.6078459,89.9959869 C60.6058684,89.9958286 60.6029458,89.9956958 60.6000113,89.9955722 L61.0017842,90.012483 Z M21.9308191,18.9938466 C21.9265877,18.9938195 21.9224575,18.9938151 21.9184253,18.993833 C21.9276221,18.9937922 21.9398152,18.9927175 21.9547335,18.9902939 Z M12.6850852,63.6186628 C12.6826874,63.6157863 12.6802662,63.6129338 12.6778215,63.6101057 C12.6809099,63.6136855 12.6839929,63.617253 12.6870705,63.6208081 Z" id="Path"></path>
        </g>
        <line x1="46" y1="104" x2="74" y2="104" id="Line" stroke="#19D3F1" stroke-width="4" stroke-linecap="square"></line>
    </g>
</svg>