<?xml version="1.0" encoding="UTF-8"?>
<svg width="120px" height="120px" viewBox="0 0 120 120" version="1.1" xmlns="http://www.w3.org/2000/svg" xmlns:xlink="http://www.w3.org/1999/xlink">
    <!-- Generator: Sketch 59.1 (86144) - https://sketch.com -->
    <title>Linkedin-Hollow</title>
    <desc>Created with Sketch.</desc>
    <g id="Linkedin-Hollow" stroke="none" stroke-width="1" fill="none" fill-rule="evenodd">
        <rect id="Rectangle" stroke="#19D3F1" stroke-width="4" x="16" y="16" width="88" height="88"></rect>
        <g id="linkedin" transform="translate(30.000000, 29.000000)" fill-rule="nonzero" stroke="#19D3F1" stroke-width="4">
            <path d="M60.9849139,61 L60.9849139,60.9974431 L61,60.9974431 L61,38.491416 C61,27.4813101 58.6692025,19 46.0119915,19 C39.9272774,19 35.8439817,22.3955924 34.1769712,25.6147571 L34.0009671,25.6147571 L34.0009671,20.0278826 L22,20.0278826 L22,60.9974431 L34.496293,60.9974431 L34.496293,40.7108243 C34.496293,35.3694143 35.4919734,30.204432 41.9965831,30.204432 C48.4056476,30.204432 48.5011927,36.3001339 48.5011927,41.0534518 L48.5011927,61 L60.9849139,61 Z" id="Path"></path>
            <polygon id="Path" points="2 20 14 20 14 61 2 61"></polygon>
            <path d="M7.5,0 C3.35964608,0 0,3.34398204 0,7.46503195 C0,11.5860819 3.35964608,15 7.5,15 C11.6403539,15 15,11.5860819 15,7.46503195 C14.9973976,3.34398204 11.6377516,0 7.5,0 Z" id="Path"></path>
        </g>
    </g>
</svg>