<?xml version="1.0" encoding="UTF-8"?>
<svg width="120px" height="120px" viewBox="0 0 120 120" version="1.1" xmlns="http://www.w3.org/2000/svg" xmlns:xlink="http://www.w3.org/1999/xlink">
    <!-- Generator: Sketch 59.1 (86144) - https://sketch.com -->
    <title>Phone-Filled</title>
    <desc>Created with Sketch.</desc>
    <g id="Phone-Filled" stroke="none" stroke-width="1" fill="none" fill-rule="evenodd">
        <path d="M34.1685133,10 C39.3864142,10 51.3387295,30.6412668 50.0875291,34.5636577 C48.3642252,39.9660472 37.9983526,40.9372782 36.616032,48.2434126 C35.6667358,53.2608345 38.7828517,61.3747601 45.682773,70.2915772 C53.53895,80.4441702 59.9741553,84.7520131 67.9282815,85.4110016 C76.1599673,86.0929855 80.680061,75.13056 84.7916674,75.13056 C93.4789357,75.13056 107,88.783606 107,92.5178876 C107,99.1149744 95.2542754,107.310691 84.7916674,109.622968 C78.6938408,110.970612 66.2282721,108.91487 52.6010805,100.041392 C44.1433103,94.5340329 33.0153156,82.6517283 27.7379647,74.6673562 C18.2857107,60.366561 14.8789908,49.852771 14.112821,41.6540195 C12.5607742,25.0456305 27.4206989,10 34.1685133,10 Z" id="Path" stroke="#19D3F1" stroke-width="4" fill="#19D3F1"></path>
    </g>
</svg>